<svg width="885" height="205" viewBox="0 0 885 205" fill="none" xmlns="http://www.w3.org/2000/svg">
<path fill-rule="evenodd" clip-rule="evenodd" d="M572.437 -188.278C618.171 -191.469 646.091 -192.905 689.36 -177.751C721.558 -166.474 741.738 -159.142 765.175 -134.352C780.479 -118.166 780.22 -102.142 795.826 -86.2472C832.493 -48.9015 887.058 -85.1518 924.418 -48.4993C975.265 1.38457 958.719 112.191 942.5 133C886.164 205.28 668.397 115.757 479 123C278.027 130.686 177.5 282 -36 153C-249.5 24 -119.815 67.3621 -107.463 4.03203C-103.596 -15.7951 -88.0434 -23.7926 -88.2442 -43.9924C-88.6356 -83.3652 -159.715 -71.6531 -163.74 -110.822C-169.685 -168.669 -73.537 -120.843 -15.6752 -126.648C172.079 -145.485 280.785 -128.71 466.009 -164.744C507.792 -172.872 529.973 -185.315 572.437 -188.278Z" fill="#F0F6FC"/>
</svg>