<svg width="238" height="302" viewBox="0 0 238 302" fill="none" xmlns="http://www.w3.org/2000/svg">
<path d="M229.573 360.366C235.546 338.231 231.046 302.682 235.289 285.889C242.931 255.633 234.569 203.066 208.245 188.562C181.921 174.058 165.924 192.407 155.9 190.48C145.878 188.554 139.901 183.597 127.065 196.615C114.229 209.635 115.001 230.716 87.3286 239.561C66.2282 246.307 80.4759 276.236 98.6521 272.294C111.064 269.604 107.826 281.232 106.015 292.112C105.195 297.047 102.551 308.182 96.9536 308.671C88.2063 309.434 84.5584 310.821 80.7565 313.983C76.9546 317.145 74.5937 329.893 93.2108 337.737C109.969 344.799 95.4388 352.102 104.733 364.928C114.191 377.981 221.421 390.577 229.573 360.366Z" fill="#4D8DC8"/>
<path d="M26.1933 235.76C26.1933 235.76 27.706 214.973 31.3244 209.5C34.717 204.369 37.2235 202.655 40.1245 201.074C43.0255 199.493 43.6859 192.715 33.7296 197.619C23.7733 202.522 17.8341 197.385 15.2011 198.175C12.568 198.966 14.1251 232.432 19.8068 237.044C25.4886 241.657 26.0857 238.956 26.1933 235.76Z" fill="#4D8DC8"/>
<path d="M102.326 138.488C115.396 154.24 128.302 154.695 133.395 162.955C139.022 172.077 135.505 179.668 135.505 179.668C135.505 179.668 161.525 190.797 173.482 174.058C173.482 174.058 168.56 165.601 175.592 152.678C182.624 139.755 188.322 137.388 192.47 122.372" stroke="#13344B" stroke-width="2" stroke-linecap="round" stroke-linejoin="round"/>
<path d="M87.6834 57.0992C87.6834 57.0992 86.7065 64.9687 86.5441 76.0362" stroke="#13344B" stroke-width="2" stroke-linecap="round" stroke-linejoin="round"/>
<path d="M175.085 173.588C175.085 173.588 199.806 178.422 214.273 204.272C235.697 242.55 231.947 302.937 192.473 327.692C137.003 362.476 74.0752 335.64 53.6795 322.289" stroke="#13344B" stroke-width="2" stroke-linecap="round" stroke-linejoin="round"/>
<path d="M186.846 243.782C186.846 243.782 191.098 280.418 165.244 296.071C137.386 312.936 109.656 311.736 80.7599 299.233" stroke="#13344B" stroke-width="2" stroke-linecap="round" stroke-linejoin="round"/>
<path d="M64.9983 163.256C64.9983 163.256 73.4397 159.656 68.6378 151.603C64.8591 145.268 46.5162 131.981 27.9286 146.191C9.34101 160.402 7.40419 193.508 17.6959 199.819C27.9877 206.131 36.9671 194.349 36.9671 194.349" stroke="#13344B" stroke-width="2" stroke-linecap="round" stroke-linejoin="round"/>
<path d="M45.8331 151.042C45.8331 151.042 66.5431 159.203 66.9398 170.487C67.2795 180.17 56.3295 176.689 56.3295 176.689" stroke="#13344B" stroke-width="2" stroke-linecap="round" stroke-linejoin="round"/>
<path d="M46.0853 186.507C46.0853 186.507 54.2672 192.171 57.2083 182.52C59.8456 173.871 37.2747 159.569 37.2747 159.569" stroke="#13344B" stroke-width="2" stroke-linecap="round" stroke-linejoin="round"/>
<path d="M29.4703 171.752C29.4703 171.752 52.1003 181.78 44.6737 191.667C39.5046 198.548 29.1939 187.755 29.1939 187.755" stroke="#13344B" stroke-width="2" stroke-linecap="round" stroke-linejoin="round"/>
<path d="M69.7585 159.399C69.7585 159.399 80.8942 163.174 75.2947 173.574C74.0246 175.933 71.343 178.863 64.3447 176.39" stroke="#13344B" stroke-width="2" stroke-linecap="round" stroke-linejoin="round"/>
<path d="M59.0403 141.44C59.0403 141.44 59.8673 135.615 63.8823 132.9" stroke="#13344B" stroke-width="2" stroke-linecap="round" stroke-linejoin="round"/>
<path d="M68.8782 149.781C68.8782 149.781 77.0812 143.375 75.0747 138.979" stroke="#13344B" stroke-width="2" stroke-linecap="round" stroke-linejoin="round"/>
<path d="M83.0133 77.5203C70.9768 79.6263 59.4402 88.2884 57.438 103.313C55.5581 117.429 63.9046 140.698 89.8429 140.944C115.781 141.191 124.159 113.111 118.686 98.4811C113.213 83.8509 99.3139 74.6659 83.0133 77.5203Z" stroke="#13344B" stroke-width="2" stroke-linecap="round" stroke-linejoin="round"/>
<path d="M88.2094 274.988C98.4905 273.582 103.909 269.606 103.909 269.606" stroke="#13344B" stroke-width="2" stroke-linecap="round" stroke-linejoin="round"/>
<path d="M12.2201 190.014C12.2201 190.014 8.99418 216.041 18.6952 239.991" stroke="#13344B" stroke-width="2" stroke-linecap="round" stroke-linejoin="round"/>
<path d="M75.3922 236.157C86.6313 235.029 98.6932 227.648 106.529 211.108C116.3 190.485 133.957 179.961 133.957 179.961" stroke="#13344B" stroke-width="2" stroke-linecap="round" stroke-linejoin="round"/>
<path d="M44.4401 199.91C43.7797 192.173 44.6764 191.669 44.6764 191.669" stroke="#13344B" stroke-width="2" stroke-linecap="round" stroke-linejoin="round"/>
<path d="M185.439 44.6781C185.439 44.6781 114.251 85.7945 83.1119 51.5294C66.1383 32.8517 84.4115 18.8539 84.4115 18.8539C84.4115 18.8539 93.3108 35.9084 110.54 18.8539C137.248 -7.5816 204.67 -6.97026 185.439 44.6781Z" fill="#13344B" stroke="#13344B" stroke-width="2" stroke-linecap="round" stroke-linejoin="round"/>
<path d="M186.661 27.805C186.661 27.805 200.208 25.1783 205.483 36.7728C210.757 48.3674 214.089 96.8536 196.071 107.394C178.053 117.935 180.646 67.3403 169.856 52.5836C159.067 37.8269 186.661 27.805 186.661 27.805Z" fill="#13344B" stroke="#13344B" stroke-width="2" stroke-linecap="round" stroke-linejoin="round"/>
<path d="M188.501 120.911C188.501 120.911 201.552 121.076 199.803 111.965C196.788 96.2614 180.163 104.759 180.163 104.759" fill="#F0F6FC"/>
<path d="M188.501 120.911C188.501 120.911 201.552 121.076 199.803 111.965C196.788 96.2614 180.163 104.759 180.163 104.759" stroke="#13344B" stroke-width="2" stroke-linecap="round" stroke-linejoin="round"/>
<path d="M121.616 93.1645C121.616 93.1645 115.212 115.593 117.396 117.408C121.616 120.913 131.285 117.408 131.285 117.408" fill="#F0F6FC"/>
<path d="M121.616 93.1645C121.616 93.1645 115.212 115.593 117.396 117.408C121.616 120.913 131.285 117.408 131.285 117.408" stroke="#13344B" stroke-width="2" stroke-linecap="round" stroke-linejoin="round"/>
<path d="M133.397 133.218C133.397 133.218 146.408 136.38 152.21 126.367" stroke="#13344B" stroke-width="2" stroke-linecap="round" stroke-linejoin="round"/>
<path d="M139.496 93.1645C139.496 93.1645 142.098 89.176 147.991 88.9483C153.265 88.7438 155.902 93.1645 155.902 93.1645" stroke="#13344B" stroke-width="2" stroke-linecap="round" stroke-linejoin="round"/>
<path d="M80.5314 108.176C80.5314 108.176 83.1328 104.188 89.0255 103.96C94.3001 103.756 96.9374 108.176 96.9374 108.176" stroke="#13344B" stroke-width="4" stroke-linecap="round" stroke-linejoin="round"/>
<path d="M40.8276 210.8C37.4898 212.896 33.0212 224.058 44.5367 226.109C59.2696 228.732 54.8115 202.022 40.8276 210.8Z" stroke="#13344B" stroke-width="2" stroke-linecap="round" stroke-linejoin="round"/>
<path d="M73.6232 224.8L26.7302 250.73" stroke="#13344B" stroke-width="2" stroke-linecap="round" stroke-linejoin="round"/>
<path d="M67.2353 259.204C68.0012 256.202 67.0602 252.905 63.1148 250.38C60.1589 248.487 54.3147 247.011 49.4009 253.403C44.4871 259.795 48.7511 266.834 57.0554 267.152" stroke="#13344B" stroke-width="2" stroke-linecap="round" stroke-linejoin="round"/>
<path d="M26.192 301.01C5.34897 297.464 -5.98504 266.336 6.01989 262.889" stroke="#13344B" stroke-width="2" stroke-linecap="round" stroke-linejoin="round"/>
<path d="M24.9983 290.752C10.0291 284.358 4.649 255.951 10.7612 254.2C19.0085 251.836 18.5317 275.656 31.3257 283.551" stroke="#13344B" stroke-width="2" stroke-linecap="round" stroke-linejoin="round"/>
<path d="M46.7487 264.685C38.3452 266.732 42.8623 285.357 51.2067 287.59C62.066 290.495 66.6591 283.842 64.2476 275.521C62.6357 269.96 54.9242 263.052 58.0637 260.01C60.9562 257.206 69.4546 262.103 75.0014 268.706C80.3055 275.017 85.7467 292.611 77.0458 306.687C66.6823 323.453 50.3818 326.419 26.4415 316.479C2.44857 306.519 -1.87236 285.787 2.51397 278.694" stroke="#13344B" stroke-width="2" stroke-linecap="round" stroke-linejoin="round"/>
<path d="M31.3245 283.553C31.3245 283.553 24.6722 266.555 33.0757 258.974C35.7551 256.557 42.264 254.259 46.1102 256.63" stroke="#13344B" stroke-width="2" stroke-linecap="round" stroke-linejoin="round"/>
<path d="M219.025 298.255C219.025 298.255 221.667 349.123 216.915 370.908" stroke="#13344B" stroke-width="2" stroke-linecap="round" stroke-linejoin="round"/>
<path d="M69.4253 98.7612C65.9166 106.639 67.2669 120.133 76.816 126.017C88.5045 133.22 100.577 127.946 104.691 123.207C113.118 113.503 110.748 99.3157 102.581 91.7518C94.7327 84.4831 75.318 85.5329 69.4253 98.7612Z" stroke="#13344B" stroke-width="2" stroke-linecap="round" stroke-linejoin="round"/>
<path d="M97.782 305.294C97.782 287.609 115.005 235.76 115.005 235.76" stroke="#13344B" stroke-width="2" stroke-linecap="round" stroke-linejoin="round"/>
<path d="M59.4373 63.4572C59.4373 63.4572 45.7952 65.0382 47.1202 76.7677" stroke="#13344B" stroke-width="2" stroke-linecap="round" stroke-linejoin="round"/>
<path d="M56.4629 46.8096C56.4629 46.8096 32.0121 45.8272 29.014 71.0695" stroke="#13344B" stroke-width="2" stroke-linecap="round" stroke-linejoin="round"/>
</svg>

